<svg width="17" height="16" viewBox="0 0 17 16" fill="none" xmlns="http://www.w3.org/2000/svg">
<path d="M10.318 14.3001C10.0587 14.3001 9.81931 14.1616 9.70237 13.9406L7.66079 10.0822C7.54867 9.87034 7.56793 9.61684 7.71031 9.42119L11.0059 5.20009L6.53819 8.31359C6.33115 8.44879 6.06288 8.46569 5.83864 8.36039L1.75616 6.43184C1.51128 6.31549 1.36202 6.07304 1.37715 5.81434C1.3916 5.55564 1.56838 5.32944 1.82564 5.24039L14.8951 0.690388C15.1461 0.603938 15.4288 0.660488 15.6194 0.840538C15.8092 1.01929 15.8711 1.28709 15.7783 1.52499L10.9632 13.875C10.8683 14.1181 10.6296 14.2851 10.3558 14.2988C10.3435 14.2994 10.3304 14.3001 10.318 14.3001Z" fill="#31352B"/>
</svg>
