<svg width="44" height="44" viewBox="0 0 44 44" fill="inherit" xmlns="http://www.w3.org/2000/svg">
<g clip-path="url(#clip0_669_763)">
<path d="M43.7453 43.7521C43.5105 43.9838 43.1634 44.0611 42.8529 43.9499L7.15858 31.2228C5.91851 31.9811 4.3456 32.1587 2.90297 31.5613C0.508321 30.5694 -0.633013 27.8141 0.358876 25.4193C2.698 19.7725 6.07526 14.718 10.3971 10.3961C14.719 6.07421 19.7735 2.69688 25.4204 0.357838C26.0068 0.114979 26.6146 -3.8147e-06 27.2131 -3.8147e-06C29.0586 8.01086e-05 30.8133 1.09364 31.5623 2.90201C32.0662 4.11871 32.0186 5.42823 31.5366 6.55263L43.9546 42.8624C44.0614 43.1745 43.9801 43.5203 43.7453 43.7521ZM12.5632 31.3252L16.3461 32.6739C16.7903 32.2007 17.0067 31.5493 16.92 30.8905C16.8435 30.3104 16.5459 29.7947 16.0817 29.4385C15.6176 29.0823 15.0428 28.9284 14.4623 29.0046C13.8823 29.081 13.3667 29.3786 13.0105 29.8429C12.6823 30.2706 12.5261 30.7924 12.5632 31.3252ZM29.9743 3.55986C29.3451 2.04066 27.597 1.31664 26.0781 1.94605C15.0747 6.50373 6.50477 15.0737 1.94691 26.0772C1.64209 26.813 1.64209 27.6235 1.94691 28.3595C2.25173 29.0954 2.82485 29.6685 3.56073 29.9733C4.29661 30.2781 5.10717 30.2781 5.84305 29.9733C6.57893 29.6685 7.15205 29.0954 7.45687 28.3595C9.40773 23.6495 12.2248 19.4336 15.8297 15.8287C19.4346 12.2238 23.6505 9.40687 28.3604 7.45592C29.8796 6.82677 30.6037 5.07889 29.9743 3.55986ZM37.6093 29.6202C37.5315 29.6221 37.4536 29.6265 37.376 29.6367C36.796 29.7131 36.2803 30.0108 35.9242 30.4749C35.568 30.9391 35.4139 31.5142 35.4902 32.0942C35.6479 33.2917 36.7501 34.1375 37.948 33.98C38.3175 33.9314 38.6644 33.7881 38.9603 33.57L37.6093 29.6202ZM39.5315 35.241C39.1128 35.469 38.6528 35.6208 38.1722 35.6841C36.0349 35.9662 34.0675 34.4557 33.7862 32.3185C33.6499 31.2833 33.9249 30.257 34.5606 29.4285C35.1729 28.6306 36.0494 28.1093 37.0382 27.9503L35.3301 22.9557L33.3658 24.4631C32.9893 24.7518 32.4497 24.681 32.1608 24.3044C31.8719 23.9279 31.943 23.3884 32.3195 23.0995L34.7433 21.2397L30.3009 8.24981C29.9283 8.57379 29.4992 8.84484 29.0185 9.04396C19.9109 12.8165 12.8176 19.9098 9.04525 29.0173C8.91411 29.334 8.75117 29.6281 8.56323 29.899L10.8645 30.7195C10.9449 30.0262 11.211 29.3648 11.647 28.7967C12.2826 27.9682 13.2029 27.437 14.2381 27.3007C14.4115 27.2779 14.5844 27.2665 14.7565 27.2665C15.6114 27.2665 16.4384 27.5458 17.1281 28.075C17.9566 28.7107 18.4878 29.6308 18.6242 30.6662C18.7465 31.5956 18.5296 32.5162 18.0425 33.2788L28.7252 37.0877L29.13 36.1103C29.2672 35.7793 29.5871 35.5795 29.9243 35.5795C30.0339 35.5795 30.1453 35.6007 30.2529 35.6452C30.6913 35.8268 30.8995 36.3296 30.718 36.768L30.3462 37.6656L41.7517 41.7324L39.5315 35.241Z" fill="inherit"/>
<path d="M9.28123 20.9451C9.27865 20.9492 9.27152 20.9601 9.26877 20.964C9.00563 21.3587 8.47307 21.4647 8.07819 21.2018C7.684 20.9394 7.57709 20.4066 7.838 20.0118C8.00257 19.7589 8.27791 19.621 8.55918 19.621C8.71834 19.621 8.8793 19.6652 9.02299 19.7576C9.42225 20.0142 9.53784 20.5459 9.28123 20.9451Z" fill="inherit"/>
<path d="M7.97429 23.08C7.13683 24.5483 6.38402 26.0851 5.73683 27.6473C5.55524 28.0859 5.05225 28.2939 4.61406 28.1123C4.17552 27.9307 3.96738 27.428 4.14905 26.9896C4.82366 25.361 5.60844 23.7591 6.48139 22.2285C6.63995 21.9506 6.93007 21.7947 7.22862 21.7947C7.37299 21.7947 7.51934 21.8312 7.65358 21.9077C8.06582 22.1429 8.2095 22.6678 7.97429 23.08Z" fill="inherit"/>
<path d="M26.8926 33.0012C26.7223 33.0237 26.5493 33.035 26.3784 33.035C24.4262 33.035 22.7616 31.5737 22.5065 29.6358C22.2252 27.4987 23.7348 25.5311 25.8719 25.2497C26.0422 25.2272 26.2152 25.2159 26.3861 25.2159C28.3382 25.2159 30.0028 26.6772 30.258 28.6153C30.5393 30.7523 29.0296 32.7198 26.8926 33.0012ZM28.554 28.8396C28.411 27.7536 27.479 26.9347 26.3861 26.9347C26.29 26.9347 26.1925 26.941 26.0963 26.9538C24.8988 27.1115 24.053 28.2139 24.2106 29.4115C24.3536 30.4974 25.2855 31.3162 26.3784 31.3162C26.4745 31.3162 26.572 31.3098 26.6682 31.2971C27.8657 31.1393 28.7116 30.0369 28.554 28.8396Z" fill="inherit"/>
<path d="M26.669 22.3116C26.4986 22.3341 26.3257 22.3455 26.1548 22.3455C24.2026 22.3455 22.538 20.8841 22.2829 18.9461C22.1465 17.9108 22.4215 16.8846 23.0572 16.056C23.6928 15.2276 24.613 14.6963 25.6483 14.56C25.8186 14.5375 25.9915 14.5263 26.1622 14.5263C28.1145 14.5263 29.7792 15.9876 30.0343 17.9257C30.3157 20.0626 28.806 22.0301 26.669 22.3116ZM28.3304 18.1499C28.1874 17.0639 27.2553 16.245 26.1624 16.245C26.0664 16.245 25.9689 16.2515 25.8728 16.2641C25.2927 16.3406 24.7771 16.6383 24.4209 17.1024C24.0647 17.5666 23.9106 18.1417 23.987 18.7218C24.13 19.8077 25.062 20.6266 26.1548 20.6266C26.2509 20.6266 26.3484 20.6203 26.4446 20.6075C27.642 20.4498 28.4879 19.3474 28.3304 18.1499Z" fill="inherit"/>
<path d="M21.001 25.8718L18.3596 26.2196C17.8893 26.2821 17.4574 25.9504 17.3954 25.4799C17.3334 25.0093 17.6647 24.5776 18.1352 24.5157L20.7765 24.1679C20.8146 24.1628 20.8524 24.1604 20.8898 24.1604C21.3144 24.1604 21.6838 24.4752 21.7407 24.9076C21.8028 25.3781 21.4716 25.8099 21.001 25.8718Z" fill="inherit"/>
<path d="M19.6616 19.5299L19.4283 21.3022C19.3664 21.7728 18.9348 22.1042 18.4642 22.0421C17.9936 21.9801 17.6624 21.5485 17.7244 21.0779L17.9577 19.3056C18.0146 18.8731 18.3839 18.5583 18.8086 18.5583C18.8459 18.5583 18.8838 18.5607 18.9217 18.5657C19.3923 18.6277 19.7235 19.0593 19.6616 19.5299Z" fill="inherit"/>
</g>
<defs>
<clipPath id="clip0_669_763">
<rect width="44" height="44" fill="inherit" transform="matrix(1 0 0 -1 0 44)"/>
</clipPath>
</defs>
</svg>
